<svg id="logo-svg"
	version="1.1"
	xmlns="http://www.w3.org/2000/svg"
	xmlns:xlink="http://www.w3.org/1999/xlink"
	xmlns:a="http://ns.adobe.com/AdobeSVGViewerExtensions/3.0/"
	x="0px"
	y="0px"
	width="686.9px"
	viewBox="0 0 686.9 447.4"
	style="overflow:hidden;enable-background:new 0 0 686.9 447.4;"
	xml:space="preserve">
	<style type="text/css">
		.logo-0 {
			opacity: 0.26;
		}
		.logo-1 {
			fill: #FFFFFF;
		}
		.logo-2 {
			filter:url(#Adobe_OpacityMaskFilter);
		}
		.logo-3 {
			mask: url("#SVGID_1_");
		}
		.logo-4 {
			filter:url(#Adobe_OpacityMaskFilter_1_);
		}
		.logo-5 {
			mask: url("#SVGID_2_");
		}
		.logo-6 {
			filter:url(#Adobe_OpacityMaskFilter_2_);
		}
		.logo-7 {
			mask: url("#SVGID_3_");
		}
		.logo-8 {
			filter:url(#Adobe_OpacityMaskFilter_3_);
		}
		.logo-9 {
			mask: url("#SVGID_4_");
		}
	</style>
	<defs></defs>
	<g>
		<g class="logo-0">
			<path
				d="M60.8,20.7c-9.6,0-18.3,2.3-26,6.8C20.6,36.1,12.2,49.6,9.7,68.1C9.3,71,9.1,74.5,9.1,78.7s0.8,8.8,2.3,14
			c2.2,7.7,6.3,14.7,12.6,20.8c6.3,6.2,14.1,10.4,23.4,12.7c3.9-14.4,9.9-27.9,17.8-40.5c8-12.6,18-23.1,30.1-31.5
			c12.1-8.4,24.9-12.6,38.3-12.6c11.6,0,18.7,4.7,21.2,14c0.8,2.4,1.1,4.9,1.1,7.6c0,7.7-2.9,16.2-8.7,25.6
			c-9.1,15-22.4,26.5-39.8,34.3c-13.6,6.2-28.4,9.3-44.2,9.3h-3.8c-2.7,9.3-4,18.4-4,27.1c0,16.4,4.2,27.8,12.5,34.1
			c1.1-10.4,3.8-20.1,8-29.2c4.2-9.1,9.9-16.7,17.3-22.9c7.4-6.2,15.6-9.3,24.5-9.3c10.4,0,16.8,4.6,19.3,13.8
			c0.6,2.5,0.9,5.1,0.9,7.8c0,6.9-2.2,14.4-6.6,22.4c-6.9,12.3-16.6,20.6-29,25c-9,3-17.9,3.5-26.7,1.5c-0.1,1.6-0.2,3.3-0.2,4.9
			c0,9.2,2,17,5.9,23.3c4.4,7.5,11.6,11.2,21.6,11.2c-0.4,2.4-2.5,3.6-6.3,3.6c-10.1,0-17.5-4.2-22.3-12.5
			c-4.7-8.3-7.1-18.2-7.1-29.6c0-1.3,0-2.5,0-3.6c-10.9-4.7-18.1-13.6-21.6-26.9c-1.8-6.3-2.7-13-2.7-20.1c0-7.1,1-14.6,3-22.5
			c-8.8-2-16.5-5.7-22.9-11s-11.1-11.4-13.8-18.2C5.8,92.4,4,84.2,4,76.6C4,69,5.2,61.9,7.6,55.2c2.4-6.7,5.8-13,10.3-19
			c4.5-6,10.5-10.9,18.1-14.6c7.6-3.7,15.9-5.6,25-5.6c17.9,0,30.2,6.9,36.8,20.8c0.8,1.5-0.1,2.5-2.7,3c-3,0.3-4.9-0.4-5.7-2.1
			C85.7,26.4,76.1,20.7,60.8,20.7z M131.1,46.6c-7.2,0-14.5,2.4-21.9,7.1c-7.4,4.7-14.1,11-20.2,18.7
			c-12.9,16.4-22.3,34.9-28.2,55.5h2.7c24.8,0,45.6-7.9,62.5-23.7c11.2-10.5,18.1-21.8,20.7-33.9c0.5-2.7,0.8-5.1,0.8-7.2
			c0-6.6-2.4-11.3-7.2-14.2C137.8,47.4,134.8,46.6,131.1,46.6z M119.6,137.4c-10.2,0-19.5,6.3-27.9,18.8
			c-8.4,12.5-13.5,26.4-15.4,41.7c3.3,1,6.8,1.5,10.4,1.5c13.9,0,25.6-6.1,35.1-18.2c7.5-9.3,11.2-18.6,11.2-27.7
			c0-9.1-3.3-14.3-9.9-15.7C122,137.5,120.8,137.4,119.6,137.4z"/>
			<path
				d="M166,194.1c-10,0-15-7.5-15-22.5c0-8.7,2.3-18.3,6.8-28.6c6.3-14,14.3-23.2,24.1-27.5c3.4-1.4,6.9-2.1,10.3-2.1
			c3.5,0,6.2,1,8.2,3c2,2,3,4.3,3,6.8c0,1.1-0.6,1.7-1.8,1.6c-1.2-0.1-1.8-0.7-1.8-1.8c0-1.1-0.6-2.2-1.8-3.1
			c-1.2-0.9-2.9-1.4-5.2-1.4c-8,0-15.2,7.1-21.6,21.4c-6.1,13.3-9.1,25.8-9.1,37.7c0,7.3,1.6,11,4.8,11c3.2,0,7.1-2.7,11.7-8.2
			c4.6-5.5,8.9-11.9,12.8-19.2c8.5-15.4,13.5-25.3,15-29.7c1.5-4.4,3.2-6.6,4.9-6.6c3.2,0,4.7,2.7,4.7,8c0,1.6-0.2,3.5-0.6,5.7
			c-4.2,20.2-6.4,31.9-6.7,35.1c-0.3,3.2-0.5,5.4-0.5,6.8c0,6.1,1.5,9.1,4.4,9.1c3.3,0,7.9-4.4,13.8-13.1
			c5.9-8.7,11.1-17.4,15.3-26.1l6.4-13.1h5.1c-0.8,1.5-1.7,3.6-2.9,6.2c-1.2,2.6-3.6,7.2-7.1,13.8c-3.5,6.6-6.9,12.5-10.1,17.5
			c-3.2,5.1-6.8,9.6-10.8,13.7c-4,4.1-7.4,6.2-10.3,6.2c-9.3,0-14-6.8-14-20.5c0-4.5,0.5-9.9,1.5-15.9h-1.3
			C185.5,182.1,174.7,194.1,166,194.1z"/>
			<path
				d="M245.4,193.9c-3.5,0-5.3-2.7-5.3-8.1c0-2.9,3.5-24.1,10.6-63.5c0.4-2.7,1.5-4,3.4-4c2.3,0,4,1.6,5.1,4.9
			c0.6,1.8,0.9,3.7,0.9,5.8c0,2.1-0.3,4.3-0.8,6.7l-2.8,14.4h1.1c11.1-25,21.9-37.5,32.2-37.5c3.5,0,6.3,1.3,8.4,3.8
			c2.1,2.5,3.1,5.6,3.1,9.1c0,6.6-1,14.8-3,24.6h0.8c10.7-23.4,21.3-35.1,31.6-35.1c3.4,0,6.2,1.3,8.3,3.8c2.1,2.5,3.2,5.9,3.2,10
			c0,4.2-1.6,13-4.8,26.5c-3.2,13.5-4.8,23.1-4.8,28.6c0,8.2,1.5,12.3,4.5,12.3c0,0.9-0.6,1.8-1.7,2.7c-1.1,0.9-2.5,1.3-4,1.3
			c-7.3,0-11-5.8-11-17.2c0-7.2,1.8-17.6,5.5-31.2c3.7-13.6,5.5-22.3,5.5-26.1c0-3.9-1.3-5.8-3.8-5.8c-4.7,0-10.1,5.7-16.4,17
			c-6.3,11.3-11.2,22.1-15,32.5c-3.7,10.4-5.9,17-6.5,20c-0.6,3-1.8,4.5-3.4,4.5c-3.5,0-5.3-2.7-5.3-8.1c0-2,1.1-9.2,3.2-21.4
			c4.2-22.5,6.3-35.9,6.3-40.3s-1.3-6.5-3.8-6.5c-3.4,0-7.4,3.5-11.9,10.5c-4.5,7-8.7,15.1-12.3,24.3c-8,19.5-12.6,32-14,37.7
			C248.1,192.6,247,193.9,245.4,193.9z"/>
			<path
				d="M373.3,189.3c3.3,0,7.9-4.4,13.8-13.1c5.9-8.7,11.1-17.4,15.3-26.1l6.4-13.1h5.1c-0.8,1.5-1.7,3.6-2.9,6.2
			c-1.2,2.6-3.6,7.2-7.1,13.8c-3.5,6.6-6.9,12.5-10.1,17.5c-3.2,5.1-6.8,9.6-10.8,13.7c-4,4.1-7.4,6.2-10.3,6.2
			c-9.3,0-14-6.1-14-18.2c0-9.1,2.6-23.9,7.8-44.3c0.5-2.1,0.9-3.8,1.2-4.9c0.3-1.1,0.7-2.6,1-4.5c0.4-1.8,0.8-3.5,1.1-5
			c0.6-2.7,1.8-4,3.4-4c2.3,0,3.9,1.6,4.9,4.9c0.5,1.5,0.8,3.3,0.8,5.5c0,2.2-0.3,4.4-0.8,6.7c-0.5,2.3-1.3,5.8-2.5,10.3
			c-1.1,4.5-2,8.3-2.7,11.2c-0.6,2.9-1.3,6.4-2.1,10.6c-1.4,6.9-2.1,13.1-2.1,18.5C368.9,186.6,370.4,189.3,373.3,189.3z
			 M385.4,80.4c2.9,0,4.4,2,4.4,5.9c0,3.9-1.9,7.1-5.7,9.5c-1.9,1.3-3.5,1.9-4.9,1.9c-2,0-3.2-0.6-3.6-1.9l-0.2-0.6
			c1.1,0,2-1.2,2.5-3.7c0.5-2.5,1.3-4.9,2.4-7.4C381.3,81.6,383,80.4,385.4,80.4z"/>
			<path
				d="M450.2,75.1c4.5-11.9,6.8-20,6.8-24.3c0-4.3-1.1-6.6-3.2-6.8c-5.9,0-12.1,9.5-18.5,28.5c-6.4,19-11.4,38.7-15,59.1
			c-3.6,20.4-5.4,34.8-5.4,43.3c0,14.3,3.5,21.4,10.6,21.4c0,0.9-0.6,1.8-1.7,2.7c-1.1,0.9-2.5,1.3-4,1.3
			c-10.4,0-15.5-9.3-15.5-27.9c0-6.8,1.3-17.3,3.8-31.4c2.5-14.1,5.8-28.8,9.9-44.2c4-15.4,9.3-28.8,15.7-40.3
			c6.4-11.4,13-17.1,19.7-17.1c5.3,0,8,3.3,8,10c0,5.1-1.6,12.1-4.7,21.2c-6.1,17.7-14.8,35.4-26.1,53.1c-3,4.7-5.7,8.5-8.1,11.4
			c-0.6,0.8-0.9,0.5-0.9-0.8c-0.1-2.4,0.4-4.5,1.7-6.3C433.5,112.6,442.5,94.9,450.2,75.1z"/>
			<path
				d="M495.1,75.1c4.5-11.9,6.8-20,6.8-24.3c0-4.3-1.1-6.6-3.2-6.8c-5.9,0-12.1,9.5-18.5,28.5c-6.4,19-11.4,38.7-15,59.1
			c-3.6,20.4-5.4,34.8-5.4,43.3c0,14.3,3.5,21.4,10.6,21.4c0,0.9-0.6,1.8-1.7,2.7c-1.1,0.9-2.5,1.3-4,1.3
			c-10.4,0-15.5-9.3-15.5-27.9c0-6.8,1.3-17.3,3.8-31.4c2.5-14.1,5.8-28.8,9.9-44.2c4-15.4,9.3-28.8,15.7-40.3
			c6.4-11.4,13-17.1,19.7-17.1c5.3,0,8,3.3,8,10c0,5.1-1.6,12.1-4.7,21.2c-6.1,17.7-14.8,35.4-26.1,53.1c-3,4.7-5.7,8.5-8.1,11.4
			c-0.6,0.8-0.9,0.5-0.9-0.8c-0.1-2.4,0.4-4.5,1.7-6.3C478.4,112.6,487.4,94.9,495.1,75.1z"/>
			<path
				d="M503.9,194.1c-10,0-15-7.5-15-22.5c0-8.7,2.3-18.3,6.8-28.6c6.3-14,14.3-23.2,24.1-27.5c3.4-1.4,6.9-2.1,10.3-2.1
			c3.5,0,6.2,1,8.2,3c2,2,3,4.3,3,6.8c0,1.1-0.6,1.7-1.8,1.6c-1.2-0.1-1.8-0.7-1.8-1.8c0-1.1-0.6-2.2-1.8-3.1
			c-1.2-0.9-2.9-1.4-5.2-1.4c-8,0-15.2,7.1-21.6,21.4c-6.1,13.3-9.1,25.8-9.1,37.7c0,7.3,1.6,11,4.8,11c3.2,0,7.1-2.7,11.7-8.2
			c4.6-5.5,8.9-11.9,12.8-19.2c8.5-15.4,13.5-25.3,15-29.7c1.5-4.4,3.2-6.6,4.9-6.6c3.2,0,4.7,2.7,4.7,8c0,1.6-0.2,3.5-0.6,5.7
			c-4.2,20.2-6.4,31.9-6.7,35.1c-0.3,3.2-0.5,5.4-0.5,6.8c0,6.1,1.5,9.1,4.4,9.1c3.3,0,7.9-4.4,13.8-13.1
			c5.9-8.7,11.1-17.4,15.3-26.1l6.4-13.1h5.1c-0.8,1.5-1.7,3.6-2.9,6.2c-1.2,2.6-3.6,7.2-7.1,13.8c-3.5,6.6-6.9,12.5-10.1,17.5
			c-3.2,5.1-6.8,9.6-10.8,13.7c-4,4.1-7.4,6.2-10.3,6.2c-9.3,0-14-6.8-14-20.5c0-4.5,0.5-9.9,1.5-15.9h-1.3
			C523.4,182.1,512.6,194.1,503.9,194.1z"/>
			<path
				d="M467.6,239c1.8,0,2.9,0.8,3.4,2.3l0.4,0.9c-5.4,0-9.4,3.3-12,9.8c-2.6,6.5-4.6,16.1-6,28.7c10.7,2,18.9,8.3,24.6,18.9
			c8.1-5.2,14.4-12.1,18.9-20.8c4.5-8.7,6.7-17.3,6.7-25.8c0-8.5-3.2-15.8-9.6-22c-6.4-6.2-15.5-9.3-27.4-9.3
			c-22.9,0-40.6,8.1-53.1,24.4c-8.7,11.5-13.1,23.8-13.1,36.8c0,13,3.3,21.8,10,26.3c2.8,1.8,5.8,2.7,9.1,2.7
			c-1.3,2.9-3.2,4.4-5.9,4.4c-9.5,0-16.1-5-19.9-15c-1.9-4.8-2.8-10.3-2.8-16.4c0-6.1,1.4-13,4.2-20.6c5.8-16.5,16.3-29.1,31.5-37.5
			c11.6-6.6,24.9-9.9,40-9.9c10.7,0,19.8,1.7,27.3,5.1c7.5,3.4,12.8,7.8,16.1,13.1c3.5,5.9,5.3,12.3,5.3,19c0,6.8-1.3,13.2-3.9,19.4
			c-2.6,6.2-6.6,12.2-11.9,18.1c-5.4,5.9-11.7,10.6-18.9,14.1c3.2,8.2,6,23.5,8.5,45.9c0.9,7.2,2.1,14.2,3.6,21
			c3.3,14.4,10.3,21.6,21,21.6c-0.3,2.3-1.9,3.4-4.9,3.4c-15.4,0-24.8-7.3-28-22c-1.6-6.9-2.7-14-3.1-21c-0.4-7.1-0.9-15.1-1.2-24.2
			c-0.4-9-1.3-16.3-2.7-21.9c-6.9,2.5-14.3,3.8-22.2,3.8h-1.7c-3.5,27.4-9.5,46.2-18,56.3c-3.4,4.2-7.9,7.6-13.4,10.4
			c-5.5,2.8-11.6,4.2-18.2,4.2c-6.6,0-12.2-1.1-16.7-3.4c-4.5-2.3-7.7-5.2-9.8-8.7c-2.8-5.2-4.2-9.9-4.2-14.2c0-4.3,0.6-8.3,1.9-12
			c1.3-3.7,3.1-7.4,5.5-11s5.6-6.5,9.5-8.8c3.9-2.3,8.1-3.4,12.7-3.4c2.5,0,4.3,0.9,5.3,2.7l0.4,0.9c-11,0-19.4,4.7-25.2,14
			c-3.3,5.3-4.9,10.7-4.9,16.3c0,2.5,0.3,5.1,0.9,7.8c2.8,9.9,9.7,14.8,20.8,14.8c5.3,0,10.1-1.3,14.3-4c4.2-2.7,7.7-5.9,10.4-9.9
			c2.7-3.9,5.2-9.1,7.5-15.5c3.4-10,6.4-22.8,9.1-38.5c-4.8-1.6-8.2-4-10.2-7.1c-2-3.1-3-5.5-3-7.1c0-1.6,0-2.8,0-3.4
			c0.6-3.3,2.6-6.2,5.8-8.8c3.2-2.6,7.4-3.9,12.6-4.1c1.6-8.6,3.3-15.6,5.1-21.1c1.8-5.5,4.3-10.2,7.6-14
			C459.1,240.9,463,239,467.6,239z M442.4,284.3c-4.5,0.4-7.8,1.7-9.7,4.1c-1.9,2.3-2.8,4.3-2.8,5.8c0,5.2,3,9,8.9,11.4
			C440.3,295.9,441.5,288.8,442.4,284.3z M451.4,307.6c7.1,0,14-1.5,20.7-4.5c-3.8-10-10.2-16-19.1-18l-2.3,22.5H451.4z"/>
			<path
				d="M519.4,346.6c0,13.3,3.5,19.9,10.6,19.9c4.8,0,9.3-3,13.5-8.9c8-11.1,12.8-25.8,14.6-44c-4.4-1.9-7.5-5-9.3-9.3
			c-1.1-2.7-1.7-4.9-1.7-6.7c0-1.8,0.3-3.4,0.8-4.8c1.1-3.4,3.2-5.1,6.3-5.1c3,0,5.3,1.9,6.9,5.8c1.6,3.9,2.4,8.7,2.4,14.7
			c0,0.4,0,0.8,0,1.3c1.5,0.5,3.8,0.8,6.7,0.8c3,0,5.6-1.2,7.9-3.6c2.3-2.4,3.4-4.6,3.4-6.6c0-0.5,0.3-0.9,0.9-1
			c0.6-0.2,1.2-0.2,1.8,0.1c0.6,0.3,0.9,0.6,0.9,1.1c0,3.7-1.5,7.1-4.6,10.4c-3.1,3.3-7.2,4.9-12.4,4.9c-1.3,0-2.9-0.1-4.9-0.4
			c-0.8,8.6-2.6,17.1-5.4,25.5c-2.8,8.4-6.8,15.7-11.8,21.8c-5.1,6.1-10.5,9.2-16.3,9.2c-11,0-17.7-5.9-20.3-17.6
			c-0.6-3.4-0.9-6.9-0.9-10.4c0-8,1.8-16.5,5.5-25.6c4.8-11.9,10.7-19.3,17.8-22.2c3.7-1.3,6.2-1.5,7.6-0.6c1.4,0.9,2.3,1.9,2.7,3
			c-5.8,0-11,5.4-15.5,16.3C521.7,325.4,519.4,336.1,519.4,346.6z"/>
			<path
				d="M631,252.8c4.5-11.9,6.8-20,6.8-24.3c0-4.3-1.1-6.6-3.2-6.8c-5.9,0-12.1,9.5-18.5,28.5c-6.4,19-11.4,38.7-15,59.1
			c-3.6,20.4-5.4,34.8-5.4,43.3c0,14.3,3.5,21.4,10.6,21.4c0,0.9-0.6,1.8-1.7,2.7c-1.1,0.9-2.5,1.3-4,1.3
			c-10.4,0-15.5-9.3-15.5-27.9c0-6.8,1.3-17.3,3.8-31.4c2.5-14.1,5.8-28.8,9.9-44.2c4-15.4,9.3-28.8,15.7-40.3
			c6.4-11.4,13-17.1,19.7-17.1c5.3,0,8,3.3,8,10c0,5.1-1.6,12.1-4.7,21.2c-6.1,17.7-14.8,35.4-26.1,53.1c-3,4.7-5.7,8.5-8.1,11.4
			c-0.6,0.8-0.9,0.5-0.9-0.8c-0.1-2.4,0.4-4.5,1.7-6.3C614.3,290.3,623.3,272.6,631,252.8z"/>
			<path
				d="M643.1,323.1c-6.8,42.6-12.6,71.7-17.4,87.4c-7.3,24.6-16.1,37-26.3,37c-6.8,0-10.2-3.5-10.2-10.6c0-3.2,0.7-7.1,2.1-11.7
			c3.9-13.1,11.2-26.8,21.8-41.1c4.9-6.6,9.2-11.3,12.9-14.2c0.8-4.8,2-12.4,3.6-22.8c1.6-10.4,2.9-18.3,3.8-23.8l0.6-3.6
			c6.2-39.5,12.8-66.8,19.7-81.7c2.7-5.9,5.8-10.9,9.5-14.8c3.7-3.9,7.6-5.9,11.9-5.9c8,0,11.9,5.8,11.9,17.4
			c0,9.5-2.9,19.7-8.7,30.7c-7.1,13.3-15.5,21.4-25.4,24.4l-4.4,0.9c-1.1,6.2-2.7,15.7-4.7,28.6 M624.9,375.2
			c-7.2,7.5-14.1,18.1-20.7,32c-6.6,13.9-9.9,23.2-9.9,27.9c0,4.7,1.4,7.1,4.2,7.1c5.8,0,10.7-5.8,14.8-17.4
			C617.4,413.2,621.3,396.7,624.9,375.2z M673.3,262.7c5.7-11,8.5-20.6,8.5-28.8c0-8.2-2-12.3-6.1-12.3c-5.7,0-10.5,5.5-14.6,16.6
			c-4,11.1-8,26.9-11.7,47.7C658.5,283.7,666.4,276,673.3,262.7z"/>
			<path
				d="M245.2,231.6c0.1-0.1,0.1-0.1,0.2-0.2c1.9-1.8,3.9-3.4,5.9-4.8c4.2-2.8,8.7-5.1,13.5-6.6c2.4-0.8,4.9-1.3,7.4-1.7
			c1.3-0.2,2.6-0.3,3.9-0.3c0.3,0,0.7,0,1,0l1.1,0l1.7,0.1c2.6,0.2,5.1,0.5,7.6,1.1c2.5,0.6,4.9,1.4,7.2,2.4c4.6,2,8.9,4.9,12.5,8.3
			c3.6,3.5,6.6,7.5,8.9,11.9c2.3,4.4,3.8,9.1,4.6,14c0.4,2.4,0.6,4.9,0.6,7.3l0,1.7l0,1.8c0,1.2-0.1,2.3-0.1,3.5
			c-0.3,4.7-0.9,9.4-2.1,14c-1.2,4.6-2.9,9.1-5.1,13.3c-2.2,4.2-5,8-8.1,11.6c-3,3.5-6.3,6.7-9.6,9.8c-6.7,6.2-13.4,12-19.7,18.3
			c-3.1,3.1-6.1,6.4-9,9.8c-2.9,3.4-5.6,6.9-8.1,10.5l0,0l-0.7,1.1l-1.3-0.6c-8.2-3.8-16.3-8.1-24-12.9c-7.7-4.8-15.1-10.2-22-16.3
			c-6.9-6.1-13.2-12.8-18.5-20.5c-5.3-7.6-9.6-16.2-11.9-25.4c-1.2-4.6-1.9-9.3-2-14.1c-0.1-2.4,0-4.8,0.1-7.2l0.2-1.8
			c0-0.5,0.2-1.2,0.2-1.8c0.2-1.3,0.4-2.4,0.7-3.6c1-4.8,2.8-9.5,5.4-13.7c2.5-4.3,5.8-8.2,9.8-11.4c4-3.2,8.6-5.6,13.6-7
			c5-1.4,10.1-1.8,15.3-1.2c5.2,0.6,10.4,2.5,14.9,5.5C241.3,228,243.4,229.7,245.2,231.6z M240.2,243.8c-2-3.3-4.5-6.2-7.4-8.4
			c-2.9-2.2-6.4-3.6-10.1-4.3c-3.7-0.6-7.7-0.5-11.4,0.4c-3.7,0.9-7.3,2.6-10.5,4.9c-6.3,4.6-10.9,11.9-13,19.8c-0.3,1-0.5,2-0.7,3
			c-0.1,0.5-0.2,0.9-0.3,1.5l-0.2,1.6c-0.2,2.1-0.3,4.2-0.3,6.3c0,4.2,0.5,8.5,1.4,12.6c1.8,8.3,5.4,16.3,10.1,23.6
			c4.7,7.3,10.5,14,16.9,20.1c6.4,6.1,13.4,11.6,20.8,16.6c7.4,5,15.1,9.5,23.1,13.5l-2,0.5l0,0c2.5-3.8,5.1-7.5,7.9-11.1
			c2.8-3.6,5.7-7,8.8-10.4c6.1-6.7,12.8-12.9,19-19.2c6.2-6.3,12-12.9,15.7-20.5c1.8-3.8,3.2-7.8,4.1-11.9c0.9-4.1,1.3-8.4,1.3-12.7
			c0-1.1,0-2.2,0-3.2l0-1.6l-0.1-1.7c-0.1-2.1-0.3-4.1-0.7-6.1c-0.8-4-2.2-7.8-4.2-11.3c-2-3.5-4.5-6.7-7.5-9.3
			c-3-2.6-6.4-4.7-10-6.2c-1.8-0.7-3.7-1.3-5.6-1.7c-1.9-0.4-3.9-0.6-5.7-0.6l-1.7,0l-0.6,0c-0.2,0-0.5,0-0.7,0
			c-0.9,0.1-1.9,0.2-2.8,0.4c-1.9,0.3-3.8,0.9-5.6,1.5c-3.7,1.3-7.3,3.3-10.4,5.6c-1.6,1.2-3.1,2.5-4.4,3.8
			c-0.7,0.7-1.3,1.4-1.8,2.1c-0.3,0.3-0.5,0.7-0.8,1l-0.3,0.5l-5.4,8.8L240.2,243.8z"/>
			<path
				d="M334.1,325c0-0.2-0.1-0.3-0.1-0.5c-0.2-1.2-0.2-2.4,0-3.6c0.1-0.6,0.2-1.2,0.5-1.8c0.1-0.3,0.2-0.6,0.4-0.9l0.4-0.7
			c0-0.1,0.1-0.2,0.2-0.4l0.3-0.4c0.2-0.3,0.4-0.5,0.6-0.8c0.4-0.5,0.9-0.9,1.4-1.3c2-1.5,4.5-2.3,6.9-2.1c1.2,0.1,2.5,0.4,3.6,0.9
			l0.4,0.2l0.1,0l0.1,0l0.2,0.1l0,0l0.1,0.1l0.6,0.4l0.6,0.4l0.3,0.2c0.1,0.1,0.2,0.2,0.3,0.3c0.5,0.4,0.9,0.8,1.4,1.2
			c0.4,0.4,0.7,0.8,1.1,1.3c0.7,0.8,1.2,1.8,1.7,2.6c0.4,0.9,0.9,1.8,1.2,2.8c0.4,0.9,0.6,1.9,0.9,2.9c0.2,1,0.4,1.9,0.6,2.9
			c0.2,1,0.3,1.9,0.3,2.9c0.1,1,0.1,1.9,0.1,2.9c0,1,0,1.9-0.1,2.9l0,0c0,0.5-0.3,1-0.7,1.3l0,0c-0.8,0.6-1.5,1.2-2.3,1.7
			c-0.8,0.5-1.6,1-2.4,1.4c-0.8,0.5-1.7,0.9-2.5,1.2c-0.9,0.4-1.8,0.7-2.7,1c-0.9,0.3-1.9,0.5-2.8,0.8c-0.5,0.1-1,0.1-1.5,0.2
			l-0.7,0.1l-0.8,0c-0.5,0-1,0.1-1.5,0l-1.5-0.1c-0.5,0-1-0.2-1.5-0.3c-0.5-0.1-1-0.2-1.5-0.4l-1.5-0.6l-0.2-0.1l0,0l0,0l0,0
			l-0.1-0.1l-0.1,0l-0.3-0.2l-0.3-0.2l-0.4-0.3c-0.6-0.4-1-0.8-1.5-1.2l-0.6-0.7l-0.6-0.7c-1.4-1.9-2.1-4.4-2-6.8
			c0.1-1.2,0.4-2.4,0.9-3.5l0.2-0.4l0.2-0.4c0.1-0.1,0.3-0.5,0.5-0.8c0.4-0.5,0.8-1,1.2-1.4c0.8-0.8,1.8-1.5,2.8-2
			C333.9,325.1,334,325.1,334.1,325z M337.8,329.4c-0.3,0.1-0.9,0.3-1.4,0.6c-0.5,0.3-1.1,0.7-1.5,1.1c-0.2,0.2-0.4,0.4-0.5,0.6
			c0,0.1-0.1,0-0.2,0.3l-0.1,0.1l0,0.1l0,0l0,0c0.1-0.2,0-0.1,0.1-0.1l0,0l-0.1,0.2c-0.2,0.5-0.4,1.1-0.4,1.6
			c-0.1,1.1,0.2,2.3,0.8,3.2l0.3,0.3l0.3,0.3c0.2,0.2,0.4,0.4,0.6,0.5c0,0.1,0.8,0.5,0.8,0.5l1,0.4c0.3,0.2,0.7,0.2,1,0.3
			c0.3,0.1,0.7,0.2,1,0.3l1.1,0.2c0.4,0,0.7,0,1.1,0l0.6,0l0.6,0c0.4,0,0.8,0,1.2-0.1c0.8-0.1,1.6-0.2,2.3-0.4
			c0.8-0.2,1.6-0.4,2.3-0.7c0.8-0.3,1.5-0.6,2.3-0.9c0.8-0.3,1.5-0.7,2.3-1c0.7-0.4,1.5-0.8,2.2-1.2l-0.7,1.3l0,0
			c0-0.8-0.1-1.7-0.2-2.6c-0.1-0.9-0.2-1.7-0.4-2.6c-0.2-0.8-0.3-1.7-0.5-2.5c-0.2-0.8-0.4-1.6-0.7-2.4c-0.3-0.8-0.6-1.6-0.9-2.3
			c-0.3-0.8-0.7-1.4-1.1-2.1c-0.5-0.6-0.8-1.3-1.4-1.8c-0.3-0.3-0.5-0.6-0.7-0.8c-0.2-0.2-0.5-0.4-0.7-0.6c-0.1-0.1-0.1-0.1-0.2-0.2
			l-0.3-0.2l-0.6-0.3l-0.6-0.3l-0.1-0.1l0,0c0,0,0.4,0.2,0.2,0.1l0,0l0,0l-0.1,0l-0.2-0.1c-0.5-0.2-1.1-0.3-1.7-0.4
			c-1.2,0-2.3,0.4-3.2,1.1c-0.2,0.2-0.4,0.4-0.6,0.6c-0.1,0.1-0.2,0.2-0.2,0.3l-0.1,0.1c0,0-0.1,0.1-0.1,0.2l-0.2,0.3l-0.1,0.1
			l0,0.1l0,0l0,0c0,0,0.1-0.2,0.1-0.1l0,0c0,0.1-0.1,0.2-0.1,0.3c-0.1,0.2-0.2,0.5-0.2,0.8c-0.1,0.6-0.1,1.2-0.1,1.9
			c0,0.3,0.1,0.6,0.2,0.9c0,0.1,0.1,0.3,0.1,0.4c0,0,0,0,0,0.1l0.2,0.3c0.7,1.3,0.2,3-1.2,3.7c-0.2,0.1-0.5,0.2-0.7,0.3L337.8,329.4
			z"/>
			<path d="M302.4,307.3l35.7,18.3c0.6,0.3,0.8,1.1,0.5,1.7c-0.3,0.6-1,0.8-1.6,0.6l-36.9-15.7c-1.4-0.6-2-2.2-1.4-3.5
			c0.6-1.4,2.2-2,3.5-1.4C302.3,307.3,302.3,307.3,302.4,307.3z"/>
			<path d="M127,219.6l78.5,40.7c1.3,0.7,1.8,2.3,1.1,3.6c-0.7,1.3-2.3,1.8-3.6,1.2l-79.5-38.6c-1.9-0.9-2.7-3.2-1.8-5.2
			C122.7,219.5,125,218.7,127,219.6C127,219.6,127,219.6,127,219.6z"/>
			<path
				d="M163,240.5l-7.7-19.4l1.5,1.6l-12.8-5.2l3.6-3l4,17.2c0.4,1.6-0.6,3.3-2.3,3.6c-1.6,0.4-3.3-0.6-3.6-2.3c0,0,0-0.1,0-0.1
			l-3.3-17.3l0-0.1c-0.3-1.5,0.7-2.9,2.1-3.1c0.5-0.1,1.1,0,1.5,0.2l12.8,5.2l0.1,0.1c0.7,0.3,1.2,0.9,1.4,1.6l5.5,20.1
			c0.2,0.8-0.3,1.7-1.1,1.9C164.1,241.6,163.3,241.2,163,240.5z"/>
			<path
				d="M162.6,245.9l-18.3,8.4c-0.6,0.3-1.3,0.3-1.9,0l-0.1,0l-12.8-5.4c-1.4-0.6-2-2.2-1.4-3.5c0.2-0.5,0.5-0.9,0.9-1.1l0.1-0.1
			l14.3-10.3c1.6-1.1,3.8-0.8,4.9,0.8c1.1,1.6,0.8,3.8-0.8,4.9c-0.1,0.1-0.2,0.1-0.3,0.2l-15.2,8.9l-0.4-4.7l12.8,5.4l-2.1,0l19-6.7
			c0.9-0.3,1.9,0.2,2.3,1.1C163.9,244.6,163.5,245.6,162.6,245.9z"/>
			<path
				d="M379.1,23.1c-0.1-0.1-0.3-0.2-0.4-0.3c-1-0.7-1.8-1.5-2.5-2.5c-0.4-0.5-0.7-1-1-1.6c-0.1-0.3-0.3-0.6-0.4-0.9l-0.2-0.8
			c0-0.1-0.1-0.3-0.1-0.4l-0.1-0.5c-0.1-0.4-0.1-0.7-0.1-1c0-0.6,0-1.2,0-1.9c0.3-2.5,1.5-4.8,3.4-6.4c0.9-0.8,2-1.5,3.1-1.9
			l0.4-0.2l0.1,0l0.1,0l0.2-0.1l0,0l0.2,0l0.7-0.1l0.7-0.1l0.3-0.1c0.1,0,0.3,0,0.4,0c0.6-0.1,1.2-0.1,1.8-0.1
			c0.6,0,1.1,0.1,1.6,0.1c1.1,0.1,2.1,0.4,3.1,0.6c1,0.3,2,0.6,2.9,1.1c0.9,0.4,1.8,0.9,2.6,1.4c0.8,0.5,1.7,1,2.4,1.6
			c0.8,0.6,1.5,1.2,2.3,1.8c0.7,0.6,1.4,1.3,2.1,1.9c0.7,0.7,1.3,1.3,2,2.1l0,0c0.3,0.4,0.5,0.9,0.4,1.4l0,0c-0.1,1-0.2,1.9-0.4,2.8
			c-0.2,0.9-0.4,1.8-0.7,2.7c-0.2,0.9-0.6,1.8-0.9,2.7c-0.4,0.9-0.7,1.8-1.2,2.6c-0.4,0.9-0.9,1.7-1.4,2.5c-0.3,0.4-0.6,0.8-0.9,1.2
			l-0.5,0.6l-0.5,0.6c-0.3,0.4-0.7,0.8-1.1,1.1l-1.2,1c-0.4,0.4-0.9,0.6-1.3,0.9c-0.5,0.3-0.9,0.6-1.4,0.8l-1.5,0.7l-0.2,0.1l0,0
			l0,0l0,0l-0.1,0l-0.1,0l-0.3,0.1l-0.3,0.1l-0.5,0.1c-0.7,0.2-1.3,0.2-1.9,0.2l-0.9,0l-0.9-0.1c-2.4-0.4-4.6-1.6-6.2-3.4
			c-0.8-0.9-1.4-2-1.9-3.1l-0.2-0.4l-0.1-0.4c-0.1-0.1-0.2-0.6-0.2-0.9c-0.1-0.6-0.2-1.2-0.1-1.8c0-1.2,0.2-2.3,0.5-3.4
			C379,23.3,379.1,23.2,379.1,23.1z M384.8,23.6c-0.2,0.3-0.4,0.8-0.6,1.4c-0.2,0.6-0.2,1.3-0.2,1.8c0,0.3,0,0.6,0.1,0.8
			c0,0.1,0,0.1,0.1,0.4l0,0.2l0,0.1l0,0l0,0c-0.1-0.2,0-0.1,0-0.1l0,0l0.1,0.2c0.2,0.5,0.5,1,0.9,1.4c0.7,0.8,1.8,1.5,2.9,1.7
			l0.4,0.1l0.4,0c0.3,0,0.6,0,0.8-0.1c0,0,1-0.2,0.9-0.2l1-0.4c0.3-0.1,0.6-0.3,0.9-0.5c0.3-0.2,0.6-0.3,0.9-0.6l0.9-0.7
			c0.3-0.2,0.5-0.5,0.8-0.8l0.4-0.4l0.4-0.4c0.2-0.3,0.5-0.6,0.7-0.9c0.5-0.6,0.9-1.3,1.3-2c0.4-0.7,0.8-1.4,1.2-2.1
			c0.4-0.7,0.7-1.5,1-2.3c0.3-0.8,0.6-1.6,0.9-2.4c0.3-0.8,0.5-1.6,0.7-2.4l0.4,1.4l0,0c-0.6-0.5-1.3-1.1-2-1.7
			c-0.7-0.5-1.4-1.1-2.1-1.6c-0.7-0.5-1.4-1-2.2-1.4c-0.7-0.5-1.5-0.8-2.2-1.2c-0.8-0.4-1.5-0.7-2.3-1c-0.8-0.3-1.5-0.5-2.3-0.7
			c-0.8-0.1-1.5-0.3-2.3-0.3c-0.4,0-0.8-0.1-1.1,0c-0.3,0-0.6,0.1-0.9,0.1c-0.1,0-0.1,0-0.2,0l-0.3,0.1l-0.7,0.2l-0.7,0.2l-0.2,0
			l0,0c-0.1,0,0.4-0.1,0.2-0.1l0,0l0,0l-0.1,0l-0.2,0.1c-0.5,0.2-1,0.6-1.5,1c-0.9,0.8-1.4,1.9-1.5,3.1c0,0.3,0,0.6,0,0.9
			c0,0.1,0,0.3,0,0.4l0,0.2c0,0,0,0.1,0,0.2l0.1,0.3l0,0.2l0,0.1l0,0l0,0c0,0-0.1-0.3,0-0.1l0,0c0.1,0.1,0.1,0.2,0.1,0.4
			c0.1,0.2,0.3,0.5,0.4,0.7c0.3,0.5,0.8,1,1.3,1.4c0.2,0.2,0.5,0.4,0.8,0.5c0.1,0.1,0.3,0.1,0.3,0.2c0,0,0,0,0.1,0l0.3,0.1
			c1.5,0.4,2.3,2,1.8,3.4c-0.1,0.2-0.2,0.5-0.3,0.7L384.8,23.6z"/>
			<path d="M209.7,58.8L382,19.4c1.4-0.3,2.9,0.6,3.2,2c0.3,1.4-0.6,2.9-2,3.2L211.4,66.3c-2.1,0.5-4.2-0.8-4.7-2.8
			C206.3,61.4,207.5,59.3,209.7,58.8C209.6,58.8,209.7,58.8,209.7,58.8z"/>
			<path
				d="M250.6,51.7l-18.4-9.9l2.2,0.3l-13.2,4.2l0.8-4.7l14.1,10.6c1.3,1,1.6,2.9,0.6,4.2c-1,1.3-2.9,1.6-4.2,0.6
			c0,0-0.1,0-0.1-0.1l-13.7-11.2l0,0c-1.2-0.9-1.3-2.6-0.4-3.8c0.3-0.4,0.8-0.7,1.3-0.9l13.2-4.2l0.1,0c0.7-0.2,1.5-0.1,2.1,0.3
			l17.1,11.9c0.7,0.5,0.9,1.4,0.4,2.1C252.2,51.9,251.3,52,250.6,51.7z"/>
			<path
				d="M253.8,56.1l-8.7,18.2c-0.3,0.6-0.8,1.1-1.5,1.3l-0.1,0l-13.2,4.1c-1.4,0.4-2.9-0.4-3.4-1.8c-0.1-0.5-0.2-1,0-1.4l0-0.1
			l4.3-17.1c0.5-1.9,2.4-3,4.3-2.6c1.9,0.5,3,2.4,2.6,4.3c0,0.1-0.1,0.2-0.1,0.3l-6,16.6l-3.4-3.4l13.2-4.1l-1.6,1.3l10.3-17.3
			c0.5-0.8,1.6-1.1,2.4-0.6C253.9,54.3,254.2,55.3,253.8,56.1z"/>
			<path
				d="M646.1,315.2c-9.6,3.5-17.4,3.4-20.9,1.7l0,0c1,2.1,4.3,6.4,11.9,6.4c5.3,0,11.1-1,17.4-3.4l3.8-1.7
			c5.2-2.6,11.1-6.1,13.9-9.3c2.8-3.1,3.1-5.4,1.7-8.2c-0.9-1.8-2.1-2.4-3.5-1.9c1.6,3.2-4.3,7.2-14.4,12.2
			C654.4,311.9,646.1,315.2,646.1,315.2z"/>
			<path d="M243.6,236.8c-12.3,13.8-10.4,31.6-1.3,34.5c-1.2-16.3,5.3-24.4,12.6-33.3C254.9,233.3,248.1,231.8,243.6,236.8z"/>
		</g>
		<g>
			<g>
				<g>
					<path
						class="logo-1"
						d="M56.8,16.7c-9.6,0-18.3,2.3-26,6.8C16.6,32.1,8.2,45.6,5.7,64.1C5.3,67,5.1,70.5,5.1,74.7s0.8,8.8,2.3,14
					c2.2,7.7,6.3,14.7,12.6,20.8c6.3,6.2,14.1,10.4,23.4,12.7c3.9-14.4,9.9-27.9,17.8-40.5c8-12.6,18-23.1,30.1-31.5
					c12.1-8.4,24.9-12.6,38.3-12.6c11.6,0,18.7,4.7,21.2,14c0.8,2.4,1.1,4.9,1.1,7.6c0,7.7-2.9,16.2-8.7,25.6
					c-9.1,15-22.4,26.5-39.8,34.3c-13.6,6.2-28.4,9.3-44.2,9.3h-3.8c-2.7,9.3-4,18.4-4,27.1c0,16.4,4.2,27.8,12.5,34.1
					c1.1-10.4,3.8-20.1,8-29.2c4.2-9.1,9.9-16.7,17.3-22.9c7.4-6.2,15.6-9.3,24.5-9.3c10.4,0,16.8,4.6,19.3,13.8
					c0.6,2.5,0.9,5.1,0.9,7.8c0,6.9-2.2,14.4-6.6,22.4c-6.9,12.3-16.6,20.6-29,25c-9,3-17.9,3.5-26.7,1.5c-0.1,1.6-0.2,3.3-0.2,4.9
					c0,9.2,2,17,5.9,23.3c4.4,7.5,11.6,11.2,21.6,11.2c-0.4,2.4-2.5,3.6-6.3,3.6c-10.1,0-17.5-4.2-22.3-12.5
					c-4.7-8.3-7.1-18.2-7.1-29.6c0-1.3,0-2.5,0-3.6c-10.9-4.7-18.1-13.6-21.6-26.9c-1.8-6.3-2.7-13-2.7-20.1c0-7.1,1-14.6,3-22.5
					c-8.8-2-16.5-5.7-22.9-11S8.3,104.2,5.5,97.4C1.8,88.4,0,80.2,0,72.6C0,65,1.2,57.9,3.6,51.2c2.4-6.7,5.8-13,10.3-19
					c4.5-6,10.5-10.9,18.1-14.6c7.6-3.7,15.9-5.6,25-5.6c17.9,0,30.2,6.9,36.8,20.8c0.8,1.5-0.1,2.5-2.7,3c-3,0.3-4.9-0.4-5.7-2.1
					C81.7,22.4,72.1,16.7,56.8,16.7z M127.1,42.6c-7.2,0-14.5,2.4-21.9,7.1c-7.4,4.7-14.1,11-20.2,18.7
					c-12.9,16.4-22.3,34.9-28.2,55.5h2.7c24.8,0,45.6-7.9,62.5-23.7c11.2-10.5,18.1-21.8,20.7-33.9c0.5-2.7,0.8-5.1,0.8-7.2
					c0-6.6-2.4-11.3-7.2-14.2C133.8,43.4,130.8,42.6,127.1,42.6z M115.6,133.4c-10.2,0-19.5,6.3-27.9,18.8
					c-8.4,12.5-13.5,26.4-15.4,41.7c3.3,1,6.8,1.5,10.4,1.5c13.9,0,25.6-6.1,35.1-18.2c7.5-9.3,11.2-18.6,11.2-27.7
					c0-9.1-3.3-14.3-9.9-15.7C118,133.5,116.8,133.4,115.6,133.4z"/>
					<path
						class="logo-1"
						d="M162,190.1c-10,0-15-7.5-15-22.5c0-8.7,2.3-18.3,6.8-28.6c6.3-14,14.3-23.2,24.1-27.5
					c3.4-1.4,6.9-2.1,10.3-2.1c3.5,0,6.2,1,8.2,3c2,2,3,4.3,3,6.8c0,1.1-0.6,1.7-1.8,1.6c-1.2-0.1-1.8-0.7-1.8-1.8
					c0-1.1-0.6-2.2-1.8-3.1c-1.2-0.9-2.9-1.4-5.2-1.4c-8,0-15.2,7.1-21.6,21.4c-6.1,13.3-9.1,25.8-9.1,37.7c0,7.3,1.6,11,4.8,11
					c3.2,0,7.1-2.7,11.7-8.2c4.6-5.5,8.9-11.9,12.8-19.2c8.5-15.4,13.5-25.3,15-29.7c1.5-4.4,3.2-6.6,4.9-6.6c3.2,0,4.7,2.7,4.7,8
					c0,1.6-0.2,3.5-0.6,5.7c-4.2,20.2-6.4,31.9-6.7,35.1c-0.3,3.2-0.5,5.4-0.5,6.8c0,6.1,1.5,9.1,4.4,9.1c3.3,0,7.9-4.4,13.8-13.1
					c5.9-8.7,11.1-17.4,15.3-26.1l6.4-13.1h5.1c-0.8,1.5-1.7,3.6-2.9,6.2c-1.2,2.6-3.6,7.2-7.1,13.8c-3.5,6.6-6.9,12.5-10.1,17.5
					c-3.2,5.1-6.8,9.6-10.8,13.7c-4,4.1-7.4,6.2-10.3,6.2c-9.3,0-14-6.8-14-20.5c0-4.5,0.5-9.9,1.5-15.9h-1.3
					C181.5,178.1,170.7,190.1,162,190.1z"/>
					<path
						class="logo-1"
						d="M241.4,189.9c-3.5,0-5.3-2.7-5.3-8.1c0-2.9,3.5-24.1,10.6-63.5c0.4-2.7,1.5-4,3.4-4c2.3,0,4,1.6,5.1,4.9
					c0.6,1.8,0.9,3.7,0.9,5.8c0,2.1-0.3,4.3-0.8,6.7l-2.8,14.4h1.1c11.1-25,21.9-37.5,32.2-37.5c3.5,0,6.3,1.3,8.4,3.8
					c2.1,2.5,3.1,5.6,3.1,9.1c0,6.6-1,14.8-3,24.6h0.8c10.7-23.4,21.3-35.1,31.6-35.1c3.4,0,6.2,1.3,8.3,3.8c2.1,2.5,3.2,5.9,3.2,10
					c0,4.2-1.6,13-4.8,26.5c-3.2,13.5-4.8,23.1-4.8,28.6c0,8.2,1.5,12.3,4.5,12.3c0,0.9-0.6,1.8-1.7,2.7c-1.1,0.9-2.5,1.3-4,1.3
					c-7.3,0-11-5.8-11-17.2c0-7.2,1.8-17.6,5.5-31.2c3.7-13.6,5.5-22.3,5.5-26.1c0-3.9-1.3-5.8-3.8-5.8c-4.7,0-10.1,5.7-16.4,17
					c-6.3,11.3-11.2,22.1-15,32.5c-3.7,10.4-5.9,17-6.5,20c-0.6,3-1.8,4.5-3.4,4.5c-3.5,0-5.3-2.7-5.3-8.1c0-2,1.1-9.2,3.2-21.4
					c4.2-22.5,6.3-35.9,6.3-40.3c0-4.4-1.3-6.5-3.8-6.5c-3.4,0-7.4,3.5-11.9,10.5c-4.5,7-8.7,15.1-12.3,24.3
					c-8,19.5-12.6,32-14,37.7C244.1,188.6,243,189.9,241.4,189.9z"/>
					<path
						class="logo-1"
						d="M369.3,185.3c3.3,0,7.9-4.4,13.8-13.1c5.9-8.7,11.1-17.4,15.3-26.1l6.4-13.1h5.1c-0.8,1.5-1.7,3.6-2.9,6.2
					c-1.2,2.6-3.6,7.2-7.1,13.8c-3.5,6.6-6.9,12.5-10.1,17.5c-3.2,5.1-6.8,9.6-10.8,13.7c-4,4.1-7.4,6.2-10.3,6.2
					c-9.3,0-14-6.1-14-18.2c0-9.1,2.6-23.9,7.8-44.3c0.5-2.1,0.9-3.8,1.2-4.9c0.3-1.1,0.7-2.6,1-4.5c0.4-1.8,0.8-3.5,1.1-5
					c0.6-2.7,1.8-4,3.4-4c2.3,0,3.9,1.6,4.9,4.9c0.5,1.5,0.8,3.3,0.8,5.5c0,2.2-0.3,4.4-0.8,6.7c-0.5,2.3-1.3,5.8-2.5,10.3
					c-1.1,4.5-2,8.3-2.7,11.2c-0.6,2.9-1.3,6.4-2.1,10.6c-1.4,6.9-2.1,13.1-2.1,18.5C364.9,182.6,366.4,185.3,369.3,185.3z
					 M381.4,76.4c2.9,0,4.4,2,4.4,5.9c0,3.9-1.9,7.1-5.7,9.5c-1.9,1.3-3.5,1.9-4.9,1.9c-2,0-3.2-0.6-3.6-1.9l-0.2-0.6
					c1.1,0,2-1.2,2.5-3.7c0.5-2.5,1.3-4.9,2.4-7.4C377.3,77.6,379,76.4,381.4,76.4z"/>
					<path
						class="logo-1"
						d="M446.2,71.1c4.5-11.9,6.8-20,6.8-24.3c0-4.3-1.1-6.6-3.2-6.8c-5.9,0-12.1,9.5-18.5,28.5
					c-6.4,19-11.4,38.7-15,59.1c-3.6,20.4-5.4,34.8-5.4,43.3c0,14.3,3.5,21.4,10.6,21.4c0,0.9-0.6,1.8-1.7,2.7
					c-1.1,0.9-2.5,1.3-4,1.3c-10.4,0-15.5-9.3-15.5-27.9c0-6.8,1.3-17.3,3.8-31.4c2.5-14.1,5.8-28.8,9.9-44.2
					c4-15.4,9.3-28.8,15.7-40.3c6.4-11.4,13-17.1,19.7-17.1c5.3,0,8,3.3,8,10c0,5.1-1.6,12.1-4.7,21.2
					c-6.1,17.7-14.8,35.4-26.1,53.1c-3,4.7-5.7,8.5-8.1,11.4c-0.6,0.8-0.9,0.5-0.9-0.8c-0.1-2.4,0.4-4.5,1.7-6.3
					C429.5,108.6,438.5,90.9,446.2,71.1z"/>
					<path
						class="logo-1"
						d="M491.1,71.1c4.5-11.9,6.8-20,6.8-24.3c0-4.3-1.1-6.6-3.2-6.8c-5.9,0-12.1,9.5-18.5,28.5
					c-6.4,19-11.4,38.7-15,59.1c-3.6,20.4-5.4,34.8-5.4,43.3c0,14.3,3.5,21.4,10.6,21.4c0,0.9-0.6,1.8-1.7,2.7
					c-1.1,0.9-2.5,1.3-4,1.3c-10.4,0-15.5-9.3-15.5-27.9c0-6.8,1.3-17.3,3.8-31.4c2.5-14.1,5.8-28.8,9.9-44.2
					c4-15.4,9.3-28.8,15.7-40.3c6.4-11.4,13-17.1,19.7-17.1c5.3,0,8,3.3,8,10c0,5.1-1.6,12.1-4.7,21.2
					c-6.1,17.7-14.8,35.4-26.1,53.1c-3,4.7-5.7,8.5-8.1,11.4c-0.6,0.8-0.9,0.5-0.9-0.8c-0.1-2.4,0.4-4.5,1.7-6.3
					C474.4,108.6,483.4,90.9,491.1,71.1z"/>
					<path
						class="logo-1"
						d="M499.9,190.1c-10,0-15-7.5-15-22.5c0-8.7,2.3-18.3,6.8-28.6c6.3-14,14.3-23.2,24.1-27.5
					c3.4-1.4,6.9-2.1,10.3-2.1c3.5,0,6.2,1,8.2,3c2,2,3,4.3,3,6.8c0,1.1-0.6,1.7-1.8,1.6c-1.2-0.1-1.8-0.7-1.8-1.8
					c0-1.1-0.6-2.2-1.8-3.1c-1.2-0.9-2.9-1.4-5.2-1.4c-8,0-15.2,7.1-21.6,21.4c-6.1,13.3-9.1,25.8-9.1,37.7c0,7.3,1.6,11,4.8,11
					c3.2,0,7.1-2.7,11.7-8.2c4.6-5.5,8.9-11.9,12.8-19.2c8.5-15.4,13.5-25.3,15-29.7c1.5-4.4,3.2-6.6,4.9-6.6c3.2,0,4.7,2.7,4.7,8
					c0,1.6-0.2,3.5-0.6,5.7c-4.2,20.2-6.4,31.9-6.7,35.1c-0.3,3.2-0.5,5.4-0.5,6.8c0,6.1,1.5,9.1,4.4,9.1c3.3,0,7.9-4.4,13.8-13.1
					c5.9-8.7,11.1-17.4,15.3-26.1l6.4-13.1h5.1c-0.8,1.5-1.7,3.6-2.9,6.2c-1.2,2.6-3.6,7.2-7.1,13.8c-3.5,6.6-6.9,12.5-10.1,17.5
					c-3.2,5.1-6.8,9.6-10.8,13.7c-4,4.1-7.4,6.2-10.3,6.2c-9.3,0-14-6.8-14-20.5c0-4.5,0.5-9.9,1.5-15.9h-1.3
					C519.4,178.1,508.6,190.1,499.9,190.1z"/>
				</g>
				<path
					class="logo-1"
					d="M463.6,235c1.8,0,2.9,0.8,3.4,2.3l0.4,0.9c-5.4,0-9.4,3.3-12,9.8c-2.6,6.5-4.6,16.1-6,28.7
				c10.7,2,18.9,8.3,24.6,18.9c8.1-5.2,14.4-12.1,18.9-20.8c4.5-8.7,6.7-17.3,6.7-25.8c0-8.5-3.2-15.8-9.6-22
				c-6.4-6.2-15.5-9.3-27.4-9.3c-22.9,0-40.6,8.1-53.1,24.4c-8.7,11.5-13.1,23.8-13.1,36.8c0,13,3.3,21.8,10,26.3
				c2.8,1.8,5.8,2.7,9.1,2.7c-1.3,2.9-3.2,4.4-5.9,4.4c-9.5,0-16.1-5-19.9-15c-1.9-4.8-2.8-10.3-2.8-16.4c0-6.1,1.4-13,4.2-20.6
				c5.8-16.5,16.3-29.1,31.5-37.5c11.6-6.6,24.9-9.9,40-9.9c10.7,0,19.8,1.7,27.3,5.1c7.5,3.4,12.8,7.8,16.1,13.1
				c3.5,5.9,5.3,12.3,5.3,19c0,6.8-1.3,13.2-3.9,19.4c-2.6,6.2-6.6,12.2-11.9,18.1c-5.4,5.9-11.7,10.6-18.9,14.1
				c3.2,8.2,6,23.5,8.5,45.9c0.9,7.2,2.1,14.2,3.6,21c3.3,14.4,10.3,21.6,21,21.6c-0.3,2.3-1.9,3.4-4.9,3.4c-15.4,0-24.8-7.3-28-22
				c-1.6-6.9-2.7-14-3.1-21c-0.4-7.1-0.9-15.1-1.2-24.2c-0.4-9-1.3-16.3-2.7-21.9c-6.9,2.5-14.3,3.8-22.2,3.8h-1.7
				c-3.5,27.4-9.5,46.2-18,56.3c-3.4,4.2-7.9,7.6-13.4,10.4c-5.5,2.8-11.6,4.2-18.2,4.2c-6.6,0-12.2-1.1-16.7-3.4
				c-4.5-2.3-7.7-5.2-9.8-8.7c-2.8-5.2-4.2-9.9-4.2-14.2c0-4.3,0.6-8.3,1.9-12c1.3-3.7,3.1-7.4,5.5-11s5.6-6.5,9.5-8.8
				c3.9-2.3,8.1-3.4,12.7-3.4c2.5,0,4.3,0.9,5.3,2.7l0.4,0.9c-11,0-19.4,4.7-25.2,14c-3.3,5.3-4.9,10.7-4.9,16.3
				c0,2.5,0.3,5.1,0.9,7.8c2.8,9.9,9.7,14.8,20.8,14.8c5.3,0,10.1-1.3,14.3-4c4.2-2.7,7.7-5.9,10.4-9.9c2.7-3.9,5.2-9.1,7.5-15.5
				c3.4-10,6.4-22.8,9.1-38.5c-4.8-1.6-8.2-4-10.2-7.1c-2-3.1-3-5.5-3-7.1c0-1.6,0-2.8,0-3.4c0.6-3.3,2.6-6.2,5.8-8.8
				c3.2-2.6,7.4-3.9,12.6-4.1c1.6-8.6,3.3-15.6,5.1-21.1c1.8-5.5,4.3-10.2,7.6-14C455.1,236.9,459,235,463.6,235z M438.4,280.3
				c-4.5,0.4-7.8,1.7-9.7,4.1c-1.9,2.3-2.8,4.3-2.8,5.8c0,5.2,3,9,8.9,11.4C436.3,291.9,437.5,284.8,438.4,280.3z M447.4,303.6
				c7.1,0,14-1.5,20.7-4.5c-3.8-10-10.2-16-19.1-18l-2.3,22.5H447.4z"/>
				<path
					class="logo-1"
					d="M515.4,342.6c0,13.3,3.5,19.9,10.6,19.9c4.8,0,9.3-3,13.5-8.9c8-11.1,12.8-25.8,14.6-44
				c-4.4-1.9-7.5-5-9.3-9.3c-1.1-2.7-1.7-4.9-1.7-6.7c0-1.8,0.3-3.4,0.8-4.8c1.1-3.4,3.2-5.1,6.3-5.1c3,0,5.3,1.9,6.9,5.8
				c1.6,3.9,2.4,8.7,2.4,14.7c0,0.4,0,0.8,0,1.3c1.5,0.5,3.8,0.8,6.7,0.8c3,0,5.6-1.2,7.9-3.6c2.3-2.4,3.4-4.6,3.4-6.6
				c0-0.5,0.3-0.9,0.9-1c0.6-0.2,1.2-0.2,1.8,0.1c0.6,0.3,0.9,0.6,0.9,1.1c0,3.7-1.5,7.1-4.6,10.4c-3.1,3.3-7.2,4.9-12.4,4.9
				c-1.3,0-2.9-0.1-4.9-0.4c-0.8,8.6-2.6,17.1-5.4,25.5c-2.8,8.4-6.8,15.7-11.8,21.8c-5.1,6.1-10.5,9.2-16.3,9.2
				c-11,0-17.7-5.9-20.3-17.6c-0.6-3.4-0.9-6.9-0.9-10.4c0-8,1.8-16.5,5.5-25.6c4.8-11.9,10.7-19.3,17.8-22.2
				c3.7-1.3,6.2-1.5,7.6-0.6c1.4,0.9,2.3,1.9,2.7,3c-5.8,0-11,5.4-15.5,16.3C517.7,321.4,515.4,332.1,515.4,342.6z"/>
				<path
					class="logo-1"
					d="M627,248.8c4.5-11.9,6.8-20,6.8-24.3c0-4.3-1.1-6.6-3.2-6.8c-5.9,0-12.1,9.5-18.5,28.5
				c-6.4,19-11.4,38.7-15,59.1c-3.6,20.4-5.4,34.8-5.4,43.3c0,14.3,3.5,21.4,10.6,21.4c0,0.9-0.6,1.8-1.7,2.7
				c-1.1,0.9-2.5,1.3-4,1.3c-10.4,0-15.5-9.3-15.5-27.9c0-6.8,1.3-17.3,3.8-31.4c2.5-14.1,5.8-28.8,9.9-44.2
				c4-15.4,9.3-28.8,15.7-40.3c6.4-11.4,13-17.1,19.7-17.1c5.3,0,8,3.3,8,10c0,5.1-1.6,12.1-4.7,21.2c-6.1,17.7-14.8,35.4-26.1,53.1
				c-3,4.7-5.7,8.5-8.1,11.4c-0.6,0.8-0.9,0.5-0.9-0.8c-0.1-2.4,0.4-4.5,1.7-6.3C610.3,286.3,619.3,268.6,627,248.8z"/>
				<path
					class="logo-1"
					d="M639.1,319.1c-6.8,42.6-12.6,71.7-17.4,87.4c-7.3,24.6-16.1,37-26.3,37c-6.8,0-10.2-3.5-10.2-10.6
				c0-3.2,0.7-7.1,2.1-11.7c3.9-13.1,11.2-26.8,21.8-41.1c4.9-6.6,9.2-11.3,12.9-14.2c0.8-4.8,2-12.4,3.6-22.8
				c1.6-10.4,2.9-18.3,3.8-23.8l0.6-3.6c6.2-39.5,12.8-66.8,19.7-81.7c2.7-5.9,5.8-10.9,9.5-14.8c3.7-3.9,7.6-5.9,11.9-5.9
				c8,0,11.9,5.8,11.9,17.4c0,9.5-2.9,19.7-8.7,30.7c-7.1,13.3-15.5,21.4-25.4,24.4l-4.4,0.9c-1.1,6.2-2.7,15.7-4.7,28.6
				 M620.9,371.2c-7.2,7.5-14.1,18.1-20.7,32c-6.6,13.9-9.9,23.2-9.9,27.9c0,4.7,1.4,7.1,4.2,7.1c5.8,0,10.7-5.8,14.8-17.4
				C613.4,409.2,617.3,392.7,620.9,371.2z M669.3,258.7c5.7-11,8.5-20.6,8.5-28.8c0-8.2-2-12.3-6.1-12.3c-5.7,0-10.5,5.5-14.6,16.6
				c-4,11.1-8,26.9-11.7,47.7C654.5,279.7,662.4,272,669.3,258.7z"/>
				<defs>
					<filter id="Adobe_OpacityMaskFilter" filterUnits="userSpaceOnUse" x="174.9" y="214" width="142.3" height="140.5">
						<feFlood style="flood-color:white;flood-opacity:1" result="back"/>
						<feBlend in="SourceGraphic" in2="back" mode="normal"/>
					</filter>
				</defs>
				<mask maskUnits="userSpaceOnUse" x="174.9" y="214" width="142.3" height="140.5" id="SVGID_1_">
					<g class="logo-2">
						<polygon points="175.9,248.9 189.2,255.4 185.5,260.1 172.9,254.4 					"/>
					</g>
				</mask>
				<g class="logo-3">
					<path
						class="logo-1"
						d="M241.2,227.6c0.1-0.1,0.1-0.1,0.2-0.2c1.9-1.8,3.9-3.4,5.9-4.8c4.2-2.8,8.7-5.1,13.5-6.6
					c2.4-0.8,4.9-1.3,7.4-1.7c1.3-0.2,2.6-0.3,3.9-0.3c0.3,0,0.7,0,1,0l1.1,0l1.7,0.1c2.6,0.2,5.1,0.5,7.6,1.1
					c2.5,0.6,4.9,1.4,7.2,2.4c4.6,2,8.9,4.9,12.5,8.3c3.6,3.5,6.6,7.5,8.9,11.9c2.3,4.4,3.8,9.1,4.6,14c0.4,2.4,0.6,4.9,0.6,7.3
					l0,1.7l0,1.8c0,1.2-0.1,2.3-0.1,3.5c-0.3,4.7-0.9,9.4-2.1,14c-1.2,4.6-2.9,9.1-5.1,13.3c-2.2,4.2-5,8-8.1,11.6
					c-3,3.5-6.3,6.7-9.6,9.8c-6.7,6.2-13.4,12-19.7,18.3c-3.1,3.1-6.1,6.4-9,9.8c-2.9,3.4-5.6,6.9-8.1,10.5l0,0l-0.7,1.1l-1.3-0.6
					c-8.2-3.8-16.3-8.1-24-12.9c-7.7-4.8-15.1-10.2-22-16.3c-6.9-6.1-13.2-12.8-18.5-20.5c-5.3-7.6-9.6-16.2-11.9-25.4
					c-1.2-4.6-1.9-9.3-2-14.1c-0.1-2.4,0-4.8,0.1-7.2l0.2-1.8c0-0.5,0.2-1.2,0.2-1.8c0.2-1.3,0.4-2.4,0.7-3.6
					c1-4.8,2.8-9.5,5.4-13.7c2.5-4.3,5.8-8.2,9.8-11.4c4-3.2,8.6-5.6,13.6-7c5-1.4,10.1-1.8,15.3-1.2c5.2,0.6,10.4,2.5,14.9,5.5
					C237.3,224,239.4,225.7,241.2,227.6z M236.2,239.8c-2-3.3-4.5-6.2-7.4-8.4c-2.9-2.2-6.4-3.6-10.1-4.3c-3.7-0.6-7.7-0.5-11.4,0.4
					c-3.7,0.9-7.3,2.6-10.5,4.9c-6.3,4.6-10.9,11.9-13,19.8c-0.3,1-0.5,2-0.7,3c-0.1,0.5-0.2,0.9-0.3,1.5l-0.2,1.6
					c-0.2,2.1-0.3,4.2-0.3,6.3c0,4.2,0.5,8.5,1.4,12.6c1.8,8.3,5.4,16.3,10.1,23.6c4.7,7.3,10.5,14,16.9,20.1
					c6.4,6.1,13.4,11.6,20.8,16.6c7.4,5,15.1,9.5,23.1,13.5l-2,0.5l0,0c2.5-3.8,5.1-7.5,7.9-11.1c2.8-3.6,5.7-7,8.8-10.4
					c6.1-6.7,12.8-12.9,19-19.2c6.2-6.3,12-12.9,15.7-20.5c1.8-3.8,3.2-7.8,4.1-11.9c0.9-4.1,1.3-8.4,1.3-12.7c0-1.1,0-2.2,0-3.2
					l0-1.6l-0.1-1.7c-0.1-2.1-0.3-4.1-0.7-6.1c-0.8-4-2.2-7.8-4.2-11.3c-2-3.5-4.5-6.7-7.5-9.3c-3-2.6-6.4-4.7-10-6.2
					c-1.8-0.7-3.7-1.3-5.6-1.7c-1.9-0.4-3.9-0.6-5.7-0.6l-1.7,0l-0.6,0c-0.2,0-0.5,0-0.7,0c-0.9,0.1-1.9,0.2-2.8,0.4
					c-1.9,0.3-3.8,0.9-5.6,1.5c-3.7,1.3-7.3,3.3-10.4,5.6c-1.6,1.2-3.1,2.5-4.4,3.8c-0.7,0.7-1.3,1.4-1.8,2.1
					c-0.3,0.3-0.5,0.7-0.8,1l-0.3,0.5l-5.4,8.8L236.2,239.8z"/>
				</g>
				<g>
					<path
						class="logo-1"
						d="M330.1,321c0-0.2-0.1-0.3-0.1-0.5c-0.2-1.2-0.2-2.4,0-3.6c0.1-0.6,0.2-1.2,0.5-1.8c0.1-0.3,0.2-0.6,0.4-0.9
					l0.4-0.7c0-0.1,0.1-0.2,0.2-0.4l0.3-0.4c0.2-0.3,0.4-0.5,0.6-0.8c0.4-0.5,0.9-0.9,1.4-1.3c2-1.5,4.5-2.3,6.9-2.1
					c1.2,0.1,2.5,0.4,3.6,0.9l0.4,0.2l0.1,0l0.1,0l0.2,0.1l0,0l0.1,0.1l0.6,0.4l0.6,0.4l0.3,0.2c0.1,0.1,0.2,0.2,0.3,0.3
					c0.5,0.4,0.9,0.8,1.4,1.2c0.4,0.4,0.7,0.8,1.1,1.3c0.7,0.8,1.2,1.8,1.7,2.6c0.4,0.9,0.9,1.8,1.2,2.8c0.4,0.9,0.6,1.9,0.9,2.9
					c0.2,1,0.4,1.9,0.6,2.9c0.2,1,0.3,1.9,0.3,2.9c0.1,1,0.1,1.9,0.1,2.9c0,1,0,1.9-0.1,2.9l0,0c0,0.5-0.3,1-0.7,1.3l0,0
					c-0.8,0.6-1.5,1.2-2.3,1.7c-0.8,0.5-1.6,1-2.4,1.4c-0.8,0.5-1.7,0.9-2.5,1.2c-0.9,0.4-1.8,0.7-2.7,1c-0.9,0.3-1.9,0.5-2.8,0.8
					c-0.5,0.1-1,0.1-1.5,0.2l-0.7,0.1l-0.8,0c-0.5,0-1,0.1-1.5,0l-1.5-0.1c-0.5,0-1-0.2-1.5-0.3c-0.5-0.1-1-0.2-1.5-0.4l-1.5-0.6
					l-0.2-0.1l0,0l0,0l0,0l-0.1-0.1l-0.1,0l-0.3-0.2l-0.3-0.2l-0.4-0.3c-0.6-0.4-1-0.8-1.5-1.2l-0.6-0.7l-0.6-0.7
					c-1.4-1.9-2.1-4.4-2-6.8c0.1-1.2,0.4-2.4,0.9-3.5l0.2-0.4l0.2-0.4c0.1-0.1,0.3-0.5,0.5-0.8c0.4-0.5,0.8-1,1.2-1.4
					c0.8-0.8,1.8-1.5,2.8-2C329.9,321.1,330,321.1,330.1,321z M333.8,325.4c-0.3,0.1-0.9,0.3-1.4,0.6c-0.5,0.3-1.1,0.7-1.5,1.1
					c-0.2,0.2-0.4,0.4-0.5,0.6c0,0.1-0.1,0-0.2,0.3l-0.1,0.1l0,0.1l0,0l0,0c0.1-0.2,0-0.1,0.1-0.1l0,0l-0.1,0.2
					c-0.2,0.5-0.4,1.1-0.4,1.6c-0.1,1.1,0.2,2.3,0.8,3.2l0.3,0.3l0.3,0.3c0.2,0.2,0.4,0.4,0.6,0.5c0,0.1,0.8,0.5,0.8,0.5l1,0.4
					c0.3,0.2,0.7,0.2,1,0.3c0.3,0.1,0.7,0.2,1,0.3l1.1,0.2c0.4,0,0.7,0,1.1,0l0.6,0l0.6,0c0.4,0,0.8,0,1.2-0.1
					c0.8-0.1,1.6-0.2,2.3-0.4c0.8-0.2,1.6-0.4,2.3-0.7c0.8-0.3,1.5-0.6,2.3-0.9c0.8-0.3,1.5-0.7,2.3-1c0.7-0.4,1.5-0.8,2.2-1.2
					l-0.7,1.3l0,0c0-0.8-0.1-1.7-0.2-2.6c-0.1-0.9-0.2-1.7-0.4-2.6c-0.2-0.8-0.3-1.7-0.5-2.5c-0.2-0.8-0.4-1.6-0.7-2.4
					c-0.3-0.8-0.6-1.6-0.9-2.3c-0.3-0.8-0.7-1.4-1.1-2.1c-0.5-0.6-0.8-1.3-1.4-1.8c-0.3-0.3-0.5-0.6-0.7-0.8
					c-0.2-0.2-0.5-0.4-0.7-0.6c-0.1-0.1-0.1-0.1-0.2-0.2l-0.3-0.2l-0.6-0.3l-0.6-0.3l-0.1-0.1l0,0c0,0,0.4,0.2,0.2,0.1l0,0l0,0
					l-0.1,0l-0.2-0.1c-0.5-0.2-1.1-0.3-1.7-0.4c-1.2,0-2.3,0.4-3.2,1.1c-0.2,0.2-0.4,0.4-0.6,0.6c-0.1,0.1-0.2,0.2-0.2,0.3l-0.1,0.1
					c0,0-0.1,0.1-0.1,0.2l-0.2,0.3l-0.1,0.1l0,0.1l0,0l0,0c0,0,0.1-0.2,0.1-0.1l0,0c0,0.1-0.1,0.2-0.1,0.3c-0.1,0.2-0.2,0.5-0.2,0.8
					c-0.1,0.6-0.1,1.2-0.1,1.9c0,0.3,0.1,0.6,0.2,0.9c0,0.1,0.1,0.3,0.1,0.4c0,0,0,0,0,0.1l0.2,0.3c0.7,1.3,0.2,3-1.2,3.7
					c-0.2,0.1-0.5,0.2-0.7,0.3L333.8,325.4z"/>
				</g>
				<defs>
					<filter id="Adobe_OpacityMaskFilter_1_" filterUnits="userSpaceOnUse" x="294.5" y="303" width="40.3" height="21">
						<feFlood style="flood-color:white;flood-opacity:1" result="back"/>
						<feBlend in="SourceGraphic" in2="back" mode="normal"/>
					</filter>
				</defs>
				<mask maskUnits="userSpaceOnUse" x="294.5" y="303" width="40.3" height="21" id="SVGID_2_">
					<g class="logo-4">
						<path d="M303,302.1c-1.8,2.5-5.9,6.5-7.4,8.2c-1.6,1.8,0.5,7.9,3.6,5.3s9-10.4,9.8-11.4C309.7,303.2,303,302.1,303,302.1z"/>
					</g>
				</mask>
				<g class="logo-5">
					<path class="logo-1" d="M298.4,303.3l35.7,18.3c0.6,0.3,0.8,1.1,0.5,1.7c-0.3,0.6-1,0.8-1.6,0.6l-36.9-15.7c-1.4-0.6-2-2.2-1.4-3.5
					c0.6-1.4,2.2-2,3.5-1.4C298.3,303.3,298.3,303.3,298.4,303.3z"/>
				</g>
				<g>
					<path class="logo-1" d="M123,215.6l78.5,40.7c1.3,0.7,1.8,2.3,1.1,3.6c-0.7,1.3-2.3,1.8-3.6,1.2l-79.5-38.6
					c-1.9-0.9-2.7-3.2-1.8-5.2C118.7,215.5,121,214.7,123,215.6C123,215.6,123,215.6,123,215.6z"/>
				</g>
				<g>
					<path
						class="logo-1"
						d="M159,236.5l-7.7-19.4l1.5,1.6l-12.8-5.2l3.6-3l4,17.2c0.4,1.6-0.6,3.3-2.3,3.6c-1.6,0.4-3.3-0.6-3.6-2.3
					c0,0,0-0.1,0-0.1l-3.3-17.3l0-0.1c-0.3-1.5,0.7-2.9,2.1-3.1c0.5-0.1,1.1,0,1.5,0.2l12.8,5.2l0.1,0.1c0.7,0.3,1.2,0.9,1.4,1.6
					l5.5,20.1c0.2,0.8-0.3,1.7-1.1,1.9C160.1,237.6,159.3,237.2,159,236.5z"/>
				</g>
				<g>
					<path
						class="logo-1"
						d="M158.6,241.9l-18.3,8.4c-0.6,0.3-1.3,0.3-1.9,0l-0.1,0l-12.8-5.4c-1.4-0.6-2-2.2-1.4-3.5
					c0.2-0.5,0.5-0.9,0.9-1.1l0.1-0.1l14.3-10.3c1.6-1.1,3.8-0.8,4.9,0.8c1.1,1.6,0.8,3.8-0.8,4.9c-0.1,0.1-0.2,0.1-0.3,0.2
					l-15.2,8.9l-0.4-4.7l12.8,5.4l-2.1,0l19-6.7c0.9-0.3,1.9,0.2,2.3,1.1C159.9,240.6,159.5,241.6,158.6,241.9z"/>
				</g>
				<g>
					<g>
						<path
							class="logo-1"
							d="M375.1,19.1c-0.1-0.1-0.3-0.2-0.4-0.3c-1-0.7-1.8-1.5-2.5-2.5c-0.4-0.5-0.7-1-1-1.6
						c-0.1-0.3-0.3-0.6-0.4-0.9l-0.2-0.8c0-0.1-0.1-0.3-0.1-0.4l-0.1-0.5c-0.1-0.4-0.1-0.7-0.1-1c0-0.6,0-1.2,0-1.9
						c0.3-2.5,1.5-4.8,3.4-6.4c0.9-0.8,2-1.5,3.1-1.9l0.4-0.2l0.1,0l0.1,0l0.2-0.1l0,0l0.2,0l0.7-0.1l0.7-0.1l0.3-0.1
						c0.1,0,0.3,0,0.4,0c0.6-0.1,1.2-0.1,1.8-0.1c0.6,0,1.1,0.1,1.6,0.1c1.1,0.1,2.1,0.4,3.1,0.6c1,0.3,2,0.6,2.9,1.1
						c0.9,0.4,1.8,0.9,2.6,1.4c0.8,0.5,1.7,1,2.4,1.6c0.8,0.6,1.5,1.2,2.3,1.8c0.7,0.6,1.4,1.3,2.1,1.9c0.7,0.7,1.3,1.3,2,2.1l0,0
						c0.3,0.4,0.5,0.9,0.4,1.4l0,0c-0.1,1-0.2,1.9-0.4,2.8c-0.2,0.9-0.4,1.8-0.7,2.7c-0.2,0.9-0.6,1.8-0.9,2.7
						c-0.4,0.9-0.7,1.8-1.2,2.6c-0.4,0.9-0.9,1.7-1.4,2.5c-0.3,0.4-0.6,0.8-0.9,1.2l-0.5,0.6l-0.5,0.6c-0.3,0.4-0.7,0.8-1.1,1.1
						l-1.2,1c-0.4,0.4-0.9,0.6-1.3,0.9c-0.5,0.3-0.9,0.6-1.4,0.8l-1.5,0.7l-0.2,0.1l0,0l0,0l0,0l-0.1,0l-0.1,0l-0.3,0.1l-0.3,0.1
						l-0.5,0.1c-0.7,0.2-1.3,0.2-1.9,0.2l-0.9,0l-0.9-0.1c-2.4-0.4-4.6-1.6-6.2-3.4c-0.8-0.9-1.4-2-1.9-3.1l-0.2-0.4l-0.1-0.4
						c-0.1-0.1-0.2-0.6-0.2-0.9c-0.1-0.6-0.2-1.2-0.1-1.8c0-1.2,0.2-2.3,0.5-3.4C375,19.3,375.1,19.2,375.1,19.1z M380.8,19.6
						c-0.2,0.3-0.4,0.8-0.6,1.4c-0.2,0.6-0.2,1.3-0.2,1.8c0,0.3,0,0.6,0.1,0.8c0,0.1,0,0.1,0.1,0.4l0,0.2l0,0.1l0,0l0,0
						c-0.1-0.2,0-0.1,0-0.1l0,0l0.1,0.2c0.2,0.5,0.5,1,0.9,1.4c0.7,0.8,1.8,1.5,2.9,1.7l0.4,0.1l0.4,0c0.3,0,0.6,0,0.8-0.1
						c0,0,1-0.2,0.9-0.2l1-0.4c0.3-0.1,0.6-0.3,0.9-0.5c0.3-0.2,0.6-0.3,0.9-0.6l0.9-0.7c0.3-0.2,0.5-0.5,0.8-0.8l0.4-0.4l0.4-0.4
						c0.2-0.3,0.5-0.6,0.7-0.9c0.5-0.6,0.9-1.3,1.3-2c0.4-0.7,0.8-1.4,1.2-2.1c0.4-0.7,0.7-1.5,1-2.3c0.3-0.8,0.6-1.6,0.9-2.4
						c0.3-0.8,0.5-1.6,0.7-2.4l0.4,1.4l0,0c-0.6-0.5-1.3-1.1-2-1.7c-0.7-0.5-1.4-1.1-2.1-1.6c-0.7-0.5-1.4-1-2.2-1.4
						c-0.7-0.5-1.5-0.8-2.2-1.2c-0.8-0.4-1.5-0.7-2.3-1c-0.8-0.3-1.5-0.5-2.3-0.7c-0.8-0.1-1.5-0.3-2.3-0.3c-0.4,0-0.8-0.1-1.1,0
						c-0.3,0-0.6,0.1-0.9,0.1c-0.1,0-0.1,0-0.2,0l-0.3,0.1l-0.7,0.2l-0.7,0.2l-0.2,0l0,0c-0.1,0,0.4-0.1,0.2-0.1l0,0l0,0l-0.1,0
						l-0.2,0.1c-0.5,0.2-1,0.6-1.5,1c-0.9,0.8-1.4,1.9-1.5,3.1c0,0.3,0,0.6,0,0.9c0,0.1,0,0.3,0,0.4l0,0.2c0,0,0,0.1,0,0.2l0.1,0.3
						l0,0.2l0,0.1l0,0l0,0c0,0-0.1-0.3,0-0.1l0,0c0.1,0.1,0.1,0.2,0.1,0.4c0.1,0.2,0.3,0.5,0.4,0.7c0.3,0.5,0.8,1,1.3,1.4
						c0.2,0.2,0.5,0.4,0.8,0.5c0.1,0.1,0.3,0.1,0.3,0.2c0,0,0,0,0.1,0l0.3,0.1c1.5,0.4,2.3,2,1.8,3.4c-0.1,0.2-0.2,0.5-0.3,0.7
						L380.8,19.6z"/>
					</g>
					<g>
						<path class="logo-1" d="M205.7,54.8L378,15.4c1.4-0.3,2.9,0.6,3.2,2c0.3,1.4-0.6,2.9-2,3.2L207.4,62.3c-2.1,0.5-4.2-0.8-4.7-2.8
						C202.3,57.4,203.5,55.3,205.7,54.8C205.6,54.8,205.7,54.8,205.7,54.8z"/>
					</g>
					<g>
						<path
							class="logo-1"
							d="M246.6,47.7l-18.4-9.9l2.2,0.3l-13.2,4.2l0.8-4.7l14.1,10.6c1.3,1,1.6,2.9,0.6,4.2c-1,1.3-2.9,1.6-4.2,0.6
						c0,0-0.1,0-0.1-0.1l-13.7-11.2l0,0c-1.2-0.9-1.3-2.6-0.4-3.8c0.3-0.4,0.8-0.7,1.3-0.9l13.2-4.2l0.1,0c0.7-0.2,1.5-0.1,2.1,0.3
						l17.1,11.9c0.7,0.5,0.9,1.4,0.4,2.1C248.2,47.9,247.3,48,246.6,47.7z"/>
					</g>
					<g>
						<path
							class="logo-1"
							d="M249.8,52.1l-8.7,18.2c-0.3,0.6-0.8,1.1-1.5,1.3l-0.1,0l-13.2,4.1c-1.4,0.4-2.9-0.4-3.4-1.8
						c-0.1-0.5-0.2-1,0-1.4l0-0.1l4.3-17.1c0.5-1.9,2.4-3,4.3-2.6c1.9,0.5,3,2.4,2.6,4.3c0,0.1-0.1,0.2-0.1,0.3l-6,16.6l-3.4-3.4
						l13.2-4.1l-1.6,1.3l10.3-17.3c0.5-0.8,1.6-1.1,2.4-0.6C249.9,50.3,250.2,51.3,249.8,52.1z"/>
					</g>
				</g>
				<path
					class="logo-1"
					d="M642.1,311.2c-9.6,3.5-17.4,3.4-20.9,1.7l0,0c1,2.1,4.3,6.4,11.9,6.4c5.3,0,11.1-1,17.4-3.4l3.8-1.7
				c5.2-2.6,11.1-6.1,13.9-9.3c2.8-3.1,3.1-5.4,1.7-8.2c-0.9-1.8-2.1-2.4-3.5-1.9c1.6,3.2-4.3,7.2-14.4,12.2
				C650.4,307.9,642.1,311.2,642.1,311.2z"/>
				<path class="logo-1" d="M239.6,232.8c-12.3,13.8-10.4,31.6-1.3,34.5c-1.2-16.3,5.3-24.4,12.6-33.3
				C250.9,229.3,244.1,227.8,239.6,232.8z"/>
			</g>
		</g>
	</g>
</svg>
